<svg data-v-423bf9ae="" xmlns="http://www.w3.org/2000/svg" viewBox="0 0 645 91" class="iconLeftSlogan"><!----><!----><!----><g data-v-423bf9ae="" id="f43da405-fbbd-48ba-96dd-cd3e0386ef30" fill="#240D1B" transform="matrix(6.0180540013045345,0,0,6.0180540013045345,179.70515888267522,-4.212637073521286)"><path d="M1.04 10.50L2.97 10.50L2.97 3.14L3.18 3.14L5.04 10.08L6.97 10.08L8.83 3.14L9.04 3.14L9.04 10.50L10.98 10.50L10.98 0.98L7.69 0.98L6.01 7.92L4.33 0.98L1.04 0.98ZM15.65 3.33C13.22 3.33 12.43 4.83 12.43 6.99C12.43 9.14 13.22 10.67 15.65 10.67C18.09 10.67 18.87 9.14 18.87 6.99C18.87 4.83 18.09 3.33 15.65 3.33ZM15.65 9.07C14.62 9.07 14.34 8.34 14.34 6.99C14.34 5.63 14.62 4.93 15.65 4.93C16.69 4.93 16.97 5.63 16.97 6.99C16.97 8.34 16.69 9.07 15.65 9.07ZM22.12 10.50L22.12 5.26C22.12 5.26 22.74 5.01 23.39 5.01C24.30 5.01 24.44 5.70 24.44 6.76L24.44 10.50L26.32 10.50L26.32 6.71C26.32 4.56 25.82 3.33 23.86 3.33C23.06 3.33 22.11 3.89 22.11 3.89L22.11 3.50L20.24 3.50L20.24 10.50ZM33.94 0.70L32.06 0.70L32.06 3.53C32.06 3.53 31.07 3.33 30.55 3.33C28.64 3.33 27.65 4.41 27.65 6.97C27.65 9.44 28.27 10.67 30.38 10.67C31.09 10.67 32.07 10.21 32.07 10.21L32.07 10.50L33.94 10.50ZM30.70 8.99C29.82 8.99 29.55 8.40 29.55 6.97C29.55 5.56 29.99 4.96 30.69 4.96C31.29 4.96 32.06 5.10 32.06 5.10L32.06 8.78C32.06 8.78 31.36 8.99 30.70 8.99ZM40.73 3.70C40.73 3.70 39.02 3.35 38.01 3.35C36.54 3.35 35.31 4.00 35.31 5.63C35.31 7.17 36.11 7.53 37.62 7.78C38.91 7.99 39.06 8.13 39.06 8.44C39.06 8.81 38.82 8.99 37.93 8.99C37.21 8.99 35.48 8.76 35.48 8.76L35.42 10.33C35.42 10.33 37.07 10.67 38.11 10.67C39.86 10.67 40.92 10.04 40.92 8.40C40.92 6.99 40.35 6.51 38.72 6.22C37.44 5.98 37.17 5.91 37.17 5.59C37.17 5.21 37.34 5.03 38.15 5.03C38.96 5.03 40.70 5.25 40.70 5.25ZM48.44 8.76C47.88 8.85 46.69 8.96 46.05 8.96C44.39 8.96 44.06 8.30 44.06 5.74C44.06 3.04 44.52 2.52 45.99 2.52C46.62 2.52 47.80 2.63 48.44 2.73L48.50 1.19C47.91 1.05 46.70 0.81 45.71 0.81C42.88 0.81 42.07 2.13 42.07 5.74C42.07 9.07 42.77 10.67 45.71 10.67C46.58 10.67 47.84 10.49 48.48 10.35ZM52.63 3.33C50.19 3.33 49.41 4.83 49.41 6.99C49.41 9.14 50.19 10.67 52.63 10.67C55.06 10.67 55.85 9.14 55.85 6.99C55.85 4.83 55.06 3.33 52.63 3.33ZM52.63 9.07C51.59 9.07 51.31 8.34 51.31 6.99C51.31 5.63 51.59 4.93 52.63 4.93C53.66 4.93 53.94 5.63 53.94 6.99C53.94 8.34 53.66 9.07 52.63 9.07ZM63.17 0.70L61.29 0.70L61.29 3.53C61.29 3.53 60.30 3.33 59.78 3.33C57.88 3.33 56.88 4.41 56.88 6.97C56.88 9.44 57.50 10.67 59.61 10.67C60.33 10.67 61.31 10.21 61.31 10.21L61.31 10.50L63.17 10.50ZM59.93 8.99C59.05 8.99 58.79 8.40 58.79 6.97C58.79 5.56 59.22 4.96 59.92 4.96C60.52 4.96 61.29 5.10 61.29 5.10L61.29 8.78C61.29 8.78 60.59 8.99 59.93 8.99ZM67.86 9.02C66.85 9.02 66.46 8.64 66.44 7.80L70.56 7.80L70.70 6.50C70.70 4.38 69.71 3.33 67.65 3.33C65.60 3.33 64.55 4.61 64.55 7.10C64.55 9.62 65.45 10.67 67.56 10.67C68.87 10.67 70.48 10.28 70.48 10.28L70.45 8.89C70.45 8.89 69.01 9.02 67.86 9.02ZM66.43 6.37C66.44 5.31 66.75 4.87 67.65 4.87C68.53 4.87 68.85 5.24 68.85 6.37ZM77.10 3.70C77.10 3.70 75.39 3.35 74.38 3.35C72.91 3.35 71.68 4.00 71.68 5.63C71.68 7.17 72.48 7.53 73.99 7.78C75.28 7.99 75.43 8.13 75.43 8.44C75.43 8.81 75.19 8.99 74.30 8.99C73.58 8.99 71.85 8.76 71.85 8.76L71.79 10.33C71.79 10.33 73.44 10.67 74.48 10.67C76.23 10.67 77.29 10.04 77.29 8.40C77.29 6.99 76.72 6.51 75.10 6.22C73.81 5.98 73.54 5.91 73.54 5.59C73.54 5.21 73.71 5.03 74.52 5.03C75.33 5.03 77.07 5.25 77.07 5.25Z"></path></g><defs data-v-423bf9ae=""><linearGradient data-v-423bf9ae="" gradientTransform="rotate(25)" id="1aa630ed-57ad-49ad-afc1-5c4a674399e6" x1="0%" y1="0%" x2="100%" y2="0%"><stop data-v-423bf9ae="" offset="0%" style="stop-color: rgb(60, 17, 67); stop-opacity: 1;"></stop><stop data-v-423bf9ae="" offset="100%" style="stop-color: rgb(194, 81, 120); stop-opacity: 1;"></stop></linearGradient></defs><g data-v-423bf9ae="" id="7a13ab9d-3bcf-4a45-83fc-113fbfa9ed33" transform="matrix(2.2860044125298797,0,0,2.2860044125298797,-29.957225151274997,-66.93713016963146)" stroke="none" fill="url(#1aa630ed-57ad-49ad-afc1-5c4a674399e6)"><path d="M39.6 68.87h3.22L59.4 29.5h-3.22L39.6 68.87zM66 29.5v4.64l15.13 15.03L66 64.21v4.63l19.8-19.67L66 29.5zM33 68.84v-4.63L17.87 49.17 33 34.14V29.5L13.2 49.17 33 68.84z"></path></g><!----><g data-v-423bf9ae="" id="b3555dac-cd73-464b-b0b3-42ebaadc7b24" fill="#240D1B" transform="matrix(3.09033833866729,0,0,3.09033833866729,185.1913367044023,48.13309992914262)"><path d="M10.81 6.86L10.32 6.86L8.96 6.86L8.96 7.13C8.96 7.28 9.06 7.36 9.24 7.38L9.31 7.38C9.34 7.38 9.37 7.39 9.41 7.39L9.62 7.39C9.72 7.39 9.83 7.41 9.95 7.41L8.32 12.52C8.27 12.63 8.26 12.73 8.23 12.82C8.20 12.92 8.19 13.02 8.18 13.12C8.13 12.92 8.08 12.73 8.01 12.52L6.16 6.97C6.13 6.87 6.06 6.82 5.96 6.82L5.68 6.82C5.59 6.82 5.52 6.87 5.49 6.97L3.63 12.52C3.58 12.63 3.56 12.73 3.53 12.82L3.44 13.12C3.44 13.09 3.42 12.99 3.39 12.82C3.37 12.73 3.35 12.63 3.32 12.52L1.68 7.41C1.83 7.41 1.99 7.39 2.10 7.39C2.21 7.39 2.30 7.38 2.32 7.38L2.41 7.38C2.59 7.36 2.69 7.28 2.69 7.13L2.69 6.86L1.32 6.85L0.80 6.86L0.25 6.86L0.25 7.13C0.25 7.28 0.34 7.36 0.52 7.38L0.59 7.38L0.66 7.38C0.69 7.38 0.73 7.39 0.78 7.39L0.98 7.39L3.14 13.82L3.60 13.82C3.68 13.82 3.74 13.76 3.77 13.66L5.70 8.01C5.73 7.94 5.75 7.88 5.77 7.81L5.81 7.60L5.85 7.81C5.87 7.88 5.89 7.94 5.92 8.01L7.83 13.66C7.85 13.76 7.92 13.82 7.99 13.82L8.48 13.82L10.63 7.39L10.89 7.39C10.98 7.39 11.02 7.38 11.05 7.38L11.12 7.38C11.30 7.36 11.40 7.28 11.40 7.13L11.40 6.86ZM22.22 6.73C21.73 6.73 21.28 6.83 20.89 7.00C20.50 7.17 20.17 7.41 19.91 7.71C19.64 8.02 19.43 8.39 19.29 8.81C19.15 9.23 19.07 9.69 19.07 10.19C19.07 10.78 19.15 11.31 19.31 11.77C19.46 12.24 19.67 12.61 19.95 12.94C20.23 13.26 20.57 13.50 20.96 13.66C21.35 13.83 21.78 13.90 22.26 13.90C22.53 13.90 22.79 13.89 23.04 13.83C23.30 13.78 23.55 13.71 23.77 13.62C24.00 13.54 24.21 13.44 24.39 13.31C24.57 13.19 24.72 13.06 24.84 12.92L24.65 12.70C24.63 12.66 24.57 12.63 24.51 12.63C24.47 12.63 24.39 12.66 24.29 12.74C24.19 12.82 24.05 12.91 23.87 13.01C23.70 13.10 23.48 13.17 23.23 13.26C22.97 13.34 22.67 13.38 22.32 13.38C21.92 13.38 21.57 13.31 21.25 13.17C20.93 13.03 20.66 12.84 20.44 12.57C20.22 12.31 20.05 11.97 19.92 11.58C19.80 11.19 19.74 10.71 19.74 10.19L19.74 10.07L24.77 10.07C24.84 10.07 24.88 10.05 24.91 10.01C24.93 9.97 24.96 9.90 24.96 9.80C24.96 9.31 24.89 8.88 24.75 8.50C24.61 8.12 24.43 7.78 24.18 7.53C23.94 7.28 23.65 7.08 23.31 6.94C22.97 6.80 22.61 6.73 22.22 6.73ZM22.23 7.24C22.55 7.24 22.83 7.29 23.10 7.41C23.37 7.52 23.59 7.67 23.77 7.88C23.95 8.09 24.11 8.33 24.21 8.62C24.30 8.92 24.36 9.25 24.36 9.63L19.77 9.63C19.81 9.27 19.89 8.93 20.02 8.64C20.15 8.34 20.31 8.09 20.52 7.88C20.73 7.67 20.99 7.52 21.27 7.41C21.55 7.29 21.87 7.24 22.23 7.24ZM46.20 6.73C45.82 6.73 45.49 6.79 45.18 6.90C44.87 7.01 44.62 7.15 44.39 7.35C44.17 7.55 44.00 7.77 43.89 8.05C43.78 8.33 43.71 8.64 43.71 8.97C43.71 9.39 43.81 9.76 43.99 10.08C44.17 10.40 44.42 10.65 44.76 10.85C44.62 10.92 44.51 11.00 44.39 11.10C44.28 11.20 44.20 11.28 44.13 11.40C44.06 11.51 44.00 11.61 43.96 11.72C43.92 11.83 43.90 11.93 43.90 12.03C43.90 12.29 43.96 12.49 44.10 12.64C44.24 12.80 44.42 12.89 44.66 12.98C44.24 13.12 43.89 13.33 43.65 13.59C43.41 13.86 43.29 14.18 43.29 14.55C43.29 14.80 43.36 15.05 43.48 15.27C43.61 15.50 43.79 15.69 44.04 15.86C44.30 16.03 44.60 16.17 44.97 16.27C45.33 16.37 45.77 16.42 46.26 16.42C46.73 16.42 47.18 16.35 47.57 16.23C47.96 16.10 48.27 15.95 48.55 15.74C48.83 15.53 49.04 15.29 49.18 15.02C49.32 14.76 49.39 14.49 49.39 14.20C49.39 13.89 49.34 13.64 49.20 13.44C49.06 13.24 48.86 13.12 48.64 13.01C48.41 12.89 48.13 12.82 47.84 12.78C47.54 12.74 47.25 12.71 46.94 12.70C46.63 12.68 46.33 12.66 46.03 12.64C45.74 12.63 45.47 12.61 45.25 12.56C45.02 12.50 44.83 12.43 44.69 12.32C44.55 12.21 44.48 12.05 44.48 11.86C44.48 11.72 44.53 11.56 44.65 11.41C44.76 11.26 44.91 11.13 45.11 11.02C45.43 11.14 45.79 11.19 46.20 11.19C46.56 11.19 46.90 11.14 47.21 11.03C47.52 10.92 47.77 10.78 47.99 10.58C48.22 10.39 48.37 10.16 48.50 9.88C48.62 9.60 48.68 9.31 48.68 8.97C48.68 8.72 48.65 8.48 48.58 8.26C48.51 8.04 48.40 7.84 48.27 7.66L49.34 7.57C49.46 7.56 49.53 7.50 49.53 7.39L49.53 7.15L47.74 7.15C47.53 7.01 47.29 6.92 47.04 6.85C46.79 6.78 46.51 6.73 46.20 6.73ZM48.79 14.29C48.79 14.53 48.72 14.74 48.59 14.94C48.47 15.13 48.29 15.33 48.06 15.47C47.84 15.61 47.57 15.72 47.26 15.81C46.96 15.89 46.62 15.92 46.27 15.92C45.89 15.92 45.56 15.88 45.26 15.81C44.97 15.74 44.70 15.62 44.51 15.50C44.31 15.37 44.16 15.22 44.04 15.05C43.93 14.88 43.89 14.69 43.89 14.48C43.89 14.31 43.93 14.17 43.99 14.03C44.04 13.89 44.13 13.76 44.24 13.65C44.35 13.54 44.46 13.43 44.62 13.34C44.77 13.26 44.94 13.17 45.12 13.10C45.36 13.15 45.61 13.17 45.89 13.19C46.17 13.20 46.42 13.22 46.70 13.23C46.98 13.24 47.24 13.26 47.49 13.29C47.74 13.31 47.96 13.38 48.16 13.45C48.36 13.52 48.50 13.62 48.61 13.76C48.72 13.90 48.79 14.07 48.79 14.29ZM46.20 10.74C45.91 10.74 45.65 10.70 45.42 10.61C45.18 10.53 44.98 10.40 44.81 10.25C44.65 10.09 44.53 9.91 44.45 9.70C44.37 9.49 44.32 9.25 44.32 8.99C44.32 8.72 44.37 8.48 44.45 8.26C44.53 8.04 44.65 7.87 44.81 7.71C44.98 7.56 45.18 7.43 45.42 7.35C45.65 7.27 45.91 7.22 46.20 7.22C46.49 7.22 46.76 7.27 46.98 7.35C47.21 7.43 47.40 7.56 47.57 7.71C47.74 7.87 47.87 8.04 47.95 8.26C48.03 8.48 48.08 8.71 48.08 8.97C48.08 9.24 48.03 9.49 47.95 9.70C47.87 9.91 47.74 10.09 47.59 10.25C47.43 10.40 47.24 10.53 47.00 10.61C46.76 10.70 46.49 10.74 46.20 10.74ZM60.82 6.73C60.31 6.73 59.86 6.83 59.47 7.00C59.08 7.17 58.74 7.41 58.46 7.71C58.18 8.02 57.99 8.40 57.85 8.85C57.71 9.30 57.62 9.79 57.62 10.33C57.62 10.88 57.71 11.37 57.85 11.80C57.99 12.24 58.18 12.63 58.46 12.94C58.74 13.24 59.08 13.48 59.47 13.65C59.86 13.82 60.31 13.90 60.82 13.90C61.32 13.90 61.75 13.82 62.15 13.65C62.54 13.48 62.87 13.24 63.14 12.94C63.41 12.63 63.63 12.24 63.77 11.80C63.91 11.37 63.98 10.88 63.98 10.33C63.98 9.79 63.91 9.30 63.77 8.85C63.63 8.40 63.41 8.02 63.14 7.71C62.87 7.41 62.54 7.17 62.15 7.00C61.75 6.83 61.32 6.73 60.82 6.73ZM60.82 13.38C60.40 13.38 60.03 13.31 59.72 13.17C59.42 13.03 59.15 12.82 58.94 12.56C58.73 12.29 58.59 11.97 58.48 11.59C58.37 11.21 58.32 10.79 58.32 10.33C58.32 9.87 58.37 9.45 58.48 9.07C58.59 8.69 58.73 8.37 58.94 8.11C59.15 7.84 59.42 7.62 59.72 7.48C60.03 7.34 60.40 7.27 60.82 7.27C61.24 7.27 61.59 7.34 61.89 7.48C62.20 7.62 62.47 7.84 62.68 8.11C62.89 8.37 63.04 8.69 63.14 9.07C63.24 9.45 63.29 9.87 63.29 10.33C63.29 10.79 63.24 11.21 63.14 11.59C63.04 11.97 62.89 12.29 62.68 12.56C62.47 12.82 62.20 13.03 61.89 13.17C61.59 13.31 61.24 13.38 60.82 13.38ZM74.42 13.93C74.72 13.93 75.00 13.86 75.28 13.75C75.54 13.64 75.77 13.48 75.95 13.29L75.77 12.98C75.73 12.94 75.70 12.92 75.66 12.92C75.63 12.92 75.57 12.94 75.52 12.99C75.46 13.05 75.39 13.09 75.31 13.15C75.22 13.20 75.11 13.26 74.98 13.31C74.86 13.37 74.73 13.38 74.56 13.38C74.42 13.38 74.28 13.36 74.17 13.31C74.06 13.27 73.96 13.20 73.88 13.12C73.79 13.03 73.72 12.92 73.67 12.78C73.61 12.64 73.60 12.49 73.60 12.29L73.60 7.57L75.80 7.57L75.80 7.07L73.60 7.07L73.60 4.41L73.28 4.41C73.22 4.41 73.19 4.44 73.16 4.47C73.14 4.49 73.11 4.54 73.11 4.58L72.94 7.07L71.75 7.15L71.75 7.41C71.75 7.46 71.76 7.49 71.79 7.52C71.82 7.55 71.88 7.57 71.93 7.57L72.93 7.57L72.93 12.33C72.93 12.88 73.05 13.27 73.32 13.54C73.58 13.80 73.95 13.93 74.42 13.93ZM95.47 4.89C95.52 4.94 95.59 4.98 95.66 5.01C95.73 5.04 95.82 5.07 95.90 5.07C95.98 5.07 96.07 5.04 96.14 5.01C96.21 4.98 96.28 4.94 96.33 4.89C96.39 4.83 96.45 4.76 96.47 4.69C96.50 4.62 96.53 4.54 96.53 4.45C96.53 4.37 96.50 4.30 96.47 4.21C96.45 4.14 96.39 4.07 96.33 4.02C96.28 3.96 96.21 3.91 96.14 3.88C96.07 3.85 95.98 3.84 95.90 3.84C95.82 3.84 95.73 3.85 95.66 3.88C95.59 3.91 95.52 3.96 95.47 4.02C95.41 4.07 95.37 4.14 95.34 4.21C95.31 4.28 95.28 4.37 95.28 4.45C95.28 4.54 95.31 4.62 95.34 4.69C95.37 4.76 95.41 4.83 95.47 4.89ZM96.96 13.29L96.89 13.29L96.78 13.29C96.74 13.29 96.67 13.27 96.57 13.27C96.47 13.27 96.36 13.26 96.24 13.26L96.24 6.85L95.56 6.85L94.56 6.85L94.56 7.13C94.56 7.28 94.65 7.36 94.84 7.38L94.91 7.38C94.93 7.38 94.98 7.39 95.02 7.39L95.23 7.39C95.33 7.39 95.44 7.41 95.56 7.41L95.56 13.26C95.41 13.26 95.27 13.29 95.16 13.29L94.92 13.29L94.84 13.29C94.65 13.30 94.56 13.38 94.56 13.54L94.56 13.82L95.56 13.82L96.24 13.82L97.24 13.82L97.24 13.54C97.24 13.38 97.15 13.30 96.96 13.29ZM107.72 13.93C108.01 13.93 108.29 13.86 108.57 13.75C108.84 13.64 109.06 13.48 109.24 13.29L109.06 12.98C109.02 12.94 108.99 12.92 108.95 12.92C108.92 12.92 108.86 12.94 108.81 12.99C108.75 13.05 108.68 13.09 108.60 13.15C108.51 13.20 108.40 13.26 108.28 13.31C108.15 13.37 108.02 13.38 107.86 13.38C107.72 13.38 107.58 13.36 107.46 13.31C107.35 13.27 107.25 13.20 107.17 13.12C107.09 13.03 107.02 12.92 106.96 12.78C106.90 12.64 106.89 12.49 106.89 12.29L106.89 7.57L109.09 7.57L109.09 7.07L106.89 7.07L106.89 4.41L106.57 4.41C106.51 4.41 106.48 4.44 106.46 4.47C106.43 4.49 106.40 4.54 106.40 4.58L106.23 7.07L105.04 7.15L105.04 7.41C105.04 7.46 105.06 7.49 105.08 7.52C105.11 7.55 105.17 7.57 105.22 7.57L106.22 7.57L106.22 12.33C106.22 12.88 106.34 13.27 106.61 13.54C106.88 13.80 107.24 13.93 107.72 13.93ZM117.75 13.29C117.75 13.47 117.81 13.61 117.94 13.73C118.06 13.86 118.22 13.93 118.40 13.93C118.48 13.93 118.57 13.90 118.65 13.87C118.73 13.85 118.79 13.79 118.85 13.73C118.90 13.68 118.96 13.62 118.99 13.54C119.01 13.45 119.04 13.38 119.04 13.29C119.04 13.20 119.01 13.12 118.99 13.03C118.96 12.95 118.90 12.88 118.85 12.82C118.79 12.77 118.73 12.71 118.65 12.68C118.57 12.66 118.48 12.63 118.40 12.63C118.30 12.63 118.22 12.66 118.13 12.68C118.05 12.71 117.99 12.77 117.94 12.82C117.88 12.88 117.82 12.95 117.80 13.03C117.77 13.12 117.75 13.20 117.75 13.29Z"></path></g></svg>