<svg data-v-423bf9ae="" xmlns="http://www.w3.org/2000/svg" viewBox="0 0 458.87661759947076 60" class="font"><!----><!----><!----><g data-v-423bf9ae="" id="0f86ca4f-efb9-4e34-9967-660ecedba747" fill="white" transform="matrix(6.0180540013045345,0,0,6.0180540013045345,-6.258769339981029,-4.212637073521286)"><path d="M1.04 10.50L2.97 10.50L2.97 3.14L3.18 3.14L5.04 10.08L6.97 10.08L8.83 3.14L9.04 3.14L9.04 10.50L10.98 10.50L10.98 0.98L7.69 0.98L6.01 7.92L4.33 0.98L1.04 0.98ZM15.65 3.33C13.22 3.33 12.43 4.83 12.43 6.99C12.43 9.14 13.22 10.67 15.65 10.67C18.09 10.67 18.87 9.14 18.87 6.99C18.87 4.83 18.09 3.33 15.65 3.33ZM15.65 9.07C14.62 9.07 14.34 8.34 14.34 6.99C14.34 5.63 14.62 4.93 15.65 4.93C16.69 4.93 16.97 5.63 16.97 6.99C16.97 8.34 16.69 9.07 15.65 9.07ZM22.12 10.50L22.12 5.26C22.12 5.26 22.74 5.01 23.39 5.01C24.30 5.01 24.44 5.70 24.44 6.76L24.44 10.50L26.32 10.50L26.32 6.71C26.32 4.56 25.82 3.33 23.86 3.33C23.06 3.33 22.11 3.89 22.11 3.89L22.11 3.50L20.24 3.50L20.24 10.50ZM33.94 0.70L32.06 0.70L32.06 3.53C32.06 3.53 31.07 3.33 30.55 3.33C28.64 3.33 27.65 4.41 27.65 6.97C27.65 9.44 28.27 10.67 30.38 10.67C31.09 10.67 32.07 10.21 32.07 10.21L32.07 10.50L33.94 10.50ZM30.70 8.99C29.82 8.99 29.55 8.40 29.55 6.97C29.55 5.56 29.99 4.96 30.69 4.96C31.29 4.96 32.06 5.10 32.06 5.10L32.06 8.78C32.06 8.78 31.36 8.99 30.70 8.99ZM40.73 3.70C40.73 3.70 39.02 3.35 38.01 3.35C36.54 3.35 35.31 4.00 35.31 5.63C35.31 7.17 36.11 7.53 37.62 7.78C38.91 7.99 39.06 8.13 39.06 8.44C39.06 8.81 38.82 8.99 37.93 8.99C37.21 8.99 35.48 8.76 35.48 8.76L35.42 10.33C35.42 10.33 37.07 10.67 38.11 10.67C39.86 10.67 40.92 10.04 40.92 8.40C40.92 6.99 40.35 6.51 38.72 6.22C37.44 5.98 37.17 5.91 37.17 5.59C37.17 5.21 37.34 5.03 38.15 5.03C38.96 5.03 40.70 5.25 40.70 5.25ZM48.44 8.76C47.88 8.85 46.69 8.96 46.05 8.96C44.39 8.96 44.06 8.30 44.06 5.74C44.06 3.04 44.52 2.52 45.99 2.52C46.62 2.52 47.80 2.63 48.44 2.73L48.50 1.19C47.91 1.05 46.70 0.81 45.71 0.81C42.88 0.81 42.07 2.13 42.07 5.74C42.07 9.07 42.77 10.67 45.71 10.67C46.58 10.67 47.84 10.49 48.48 10.35ZM52.63 3.33C50.19 3.33 49.41 4.83 49.41 6.99C49.41 9.14 50.19 10.67 52.63 10.67C55.06 10.67 55.85 9.14 55.85 6.99C55.85 4.83 55.06 3.33 52.63 3.33ZM52.63 9.07C51.59 9.07 51.31 8.34 51.31 6.99C51.31 5.63 51.59 4.93 52.63 4.93C53.66 4.93 53.94 5.63 53.94 6.99C53.94 8.34 53.66 9.07 52.63 9.07ZM63.17 0.70L61.29 0.70L61.29 3.53C61.29 3.53 60.30 3.33 59.78 3.33C57.88 3.33 56.88 4.41 56.88 6.97C56.88 9.44 57.50 10.67 59.61 10.67C60.33 10.67 61.31 10.21 61.31 10.21L61.31 10.50L63.17 10.50ZM59.93 8.99C59.05 8.99 58.79 8.40 58.79 6.97C58.79 5.56 59.22 4.96 59.92 4.96C60.52 4.96 61.29 5.10 61.29 5.10L61.29 8.78C61.29 8.78 60.59 8.99 59.93 8.99ZM67.86 9.02C66.85 9.02 66.46 8.64 66.44 7.80L70.56 7.80L70.70 6.50C70.70 4.38 69.71 3.33 67.65 3.33C65.60 3.33 64.55 4.61 64.55 7.10C64.55 9.62 65.45 10.67 67.56 10.67C68.87 10.67 70.48 10.28 70.48 10.28L70.45 8.89C70.45 8.89 69.01 9.02 67.86 9.02ZM66.43 6.37C66.44 5.31 66.75 4.87 67.65 4.87C68.53 4.87 68.85 5.24 68.85 6.37ZM77.10 3.70C77.10 3.70 75.39 3.35 74.38 3.35C72.91 3.35 71.68 4.00 71.68 5.63C71.68 7.17 72.48 7.53 73.99 7.78C75.28 7.99 75.43 8.13 75.43 8.44C75.43 8.81 75.19 8.99 74.30 8.99C73.58 8.99 71.85 8.76 71.85 8.76L71.79 10.33C71.79 10.33 73.44 10.67 74.48 10.67C76.23 10.67 77.29 10.04 77.29 8.40C77.29 6.99 76.72 6.51 75.10 6.22C73.81 5.98 73.54 5.91 73.54 5.59C73.54 5.21 73.71 5.03 74.52 5.03C75.33 5.03 77.07 5.25 77.07 5.25Z"></path></g><!----><!----></svg>